<svg width="29" height="31" viewBox="0 0 29 31" fill="none" xmlns="http://www.w3.org/2000/svg">
<path d="M13.8721 0H14.038L14.3283 0.0622074L14.6393 0.186622L14.8674 0.331773L15.054 0.476923L15.2821 0.684281L15.4687 0.912375L15.7176 1.22341L16.0079 1.6796L16.2982 2.23946L16.4641 2.59197L16.7544 3.29699L16.9825 3.91906L17.2313 4.70702L17.5009 5.74381L17.7497 6.86354L17.9363 7.83813L18.1229 9.02007L18.2473 9.93244L18.3925 11.1144L19.7196 11.3632L20.6942 11.5706L21.4821 11.7572L22.4567 12.0268L23.7009 12.4415L24.5096 12.7525L24.9865 12.9599L25.6708 13.2916L26.1684 13.5612L26.5624 13.81L26.8734 14.0174L27.1223 14.204L27.3918 14.4321L27.6407 14.6602L27.848 14.8676L28.0554 15.1371L28.2213 15.4067L28.3871 15.7385L28.4908 16.0702L28.5116 16.2776V16.5264L28.4494 16.8789L28.2835 17.2729L28.1383 17.5217L27.9517 17.7498L27.6614 18.0401L27.4333 18.2268L27.0808 18.4756L26.749 18.6829L26.1477 18.994L25.5671 19.2428L24.9865 19.4502L24.4059 19.6368L23.8045 19.8027L23.0995 19.9686L22.2701 20.1344L21.2333 20.3003L20.0099 20.4455L19.0353 20.5284L18.3718 20.5699L18.3303 21.1712L18.1644 22.4776L18.0192 23.39L17.8326 24.3853L17.6253 25.3806L17.3972 26.293L17.1483 27.1224L16.9203 27.7652L16.6922 28.3458L16.5055 28.7605L16.3397 29.0923L16.1323 29.4656L15.842 29.901L15.6761 30.1084L15.448 30.3572L15.2407 30.5645L14.9711 30.7512L14.6393 30.9171L14.349 31H14.0795L13.7477 30.9378L13.4988 30.8341L13.25 30.689L13.0219 30.5023L12.7731 30.2742L12.545 29.9839L12.2962 29.6314L12.0473 29.2167L11.7778 28.7191L11.5912 28.3251L11.3009 27.5786L10.9691 26.604L10.741 25.7953L10.5129 24.8829L10.2641 23.701L10.1189 22.913L9.91156 21.503L9.76641 20.1967L9.66273 18.994L9.60052 18.1853L9.53831 16.9204L9.51758 16.0288V14.1211L9.55905 12.8769L9.64199 11.5084L9.76641 10.1191L9.89082 9.02007L10.0152 8.10769L10.2019 6.96722L10.3885 6.03411L10.6995 4.8107L10.9483 3.98127L11.1764 3.29699L11.4045 2.71639L11.5912 2.30167L11.7778 1.90769L12.0681 1.41003L12.2962 1.07826L12.4828 0.850167L12.7109 0.601338L12.9597 0.373244L13.2708 0.165886L13.5611 0.0622074L13.8721 0Z" fill="#4A68FF"/>
<path d="M8.19064 10.8025L8.21137 10.8647L8.08696 11.3001L7.90034 12.1296L7.75518 12.9797L7.67224 13.7055L7.63077 14.2654L7.61003 14.8045V15.468L7.65151 16.3804L7.73445 17.2306L7.85886 18.06L8.00401 18.7443L8.1699 19.3871L8.27358 19.7396L8.06622 19.7189L6.82207 19.4078L5.88896 19.1383L4.87291 18.8065L4.31304 18.5991L3.77391 18.3711L3.08963 18.06L2.40535 17.7075L1.86622 17.3757L1.51371 17.1269L1.22341 16.8988L0.995318 16.6915L0.829432 16.5463L0.601338 16.2975L0.39398 16.0072L0.207358 15.6754L0.0829432 15.3644L0.0207358 15.1155L0 14.9496V14.7216L0.0622074 14.369L0.165886 14.0787L0.311037 13.8092L0.518395 13.5189L0.705017 13.3323L0.725753 13.2908H0.767224V13.2493L0.93311 13.1042L1.28562 12.8346L1.6796 12.5858L1.92843 12.4406L2.40535 12.2125L2.82007 12.0259L3.37993 11.8185L4.16789 11.5697L4.95585 11.3624L5.78528 11.1757L6.80134 10.9891L7.67224 10.8647L8.19064 10.8025Z" fill="#4A68FF"/>
</svg>
